<?xml version="1.0"?>
<svg xmlns="http://www.w3.org/2000/svg" xmlns:xlink="http://www.w3.org/1999/xlink" xmlns:svgjs="http://svgjs.com/svgjs" version="1.1" width="512" height="512" x="0" y="0" viewBox="0 0 512 512" style="enable-background:new 0 0 512 512" xml:space="preserve" class=""><g><rect xmlns="http://www.w3.org/2000/svg" fill="#8acce7" height="80" rx="24" width="240" x="24" y="376" data-original="#8acce7" style="" class=""/><rect xmlns="http://www.w3.org/2000/svg" fill="#8acce7" height="80" rx="24" width="240" x="24" y="264" data-original="#8acce7" style="" class=""/><rect xmlns="http://www.w3.org/2000/svg" fill="#8acce7" height="80" rx="24" width="240" x="24" y="152" data-original="#8acce7" style="" class=""/><g xmlns="http://www.w3.org/2000/svg" fill="#379ec3"><path d="m48 232h32v32h-32z" fill="#810eb8" data-original="#379ec3" style="" class=""/><path d="m208 232h32v32h-32z" fill="#810eb8" data-original="#379ec3" style="" class=""/><path d="m48 344h32v32h-32z" fill="#810eb8" data-original="#379ec3" style="" class=""/><path d="m208 344h32v32h-32z" fill="#810eb8" data-original="#379ec3" style="" class=""/><path d="m48 456h32v32h-32z" fill="#810eb8" data-original="#379ec3" style="" class=""/><path d="m208 456h32v32h-32z" fill="#810eb8" data-original="#379ec3" style="" class=""/></g><path xmlns="http://www.w3.org/2000/svg" d="m464 232h-184a24 24 0 0 1 -24-24h-48l48-48v-112a24 24 0 0 1 24-24h184a24 24 0 0 1 24 24v160a24 24 0 0 1 -24 24z" fill="#810eb8" data-original="#eedc9a" style="" class=""/><path xmlns="http://www.w3.org/2000/svg" d="m360 72v112a15.99555 15.99555 0 0 1 -16 16h-24a23.98572 23.98572 0 0 1 -20.8999-35.78 23.97857 23.97857 0 0 1 -3.5-37.74 24.11369 24.11369 0 0 1 -12.3-10.33 24.00885 24.00885 0 0 1 20.6999-36.15c.14014 0 .28 0 .40991.01a19.63777 19.63777 0 0 1 -.40991-4.01 19.99447 19.99447 0 0 1 20-20h20a15.99552 15.99552 0 0 1 16 16z" fill="#e9afc0" data-original="#e9afc0" style="" class=""/><path xmlns="http://www.w3.org/2000/svg" d="m384 72v112a15.99555 15.99555 0 0 0 16 16h24a23.98572 23.98572 0 0 0 20.8999-35.78 23.97857 23.97857 0 0 0 3.5-37.74 24.11369 24.11369 0 0 0 12.3-10.33 24.00885 24.00885 0 0 0 -20.6999-36.15c-.14014 0-.28 0-.40991.01a19.63777 19.63777 0 0 0 .40991-4.01 19.99447 19.99447 0 0 0 -20-20h-20a15.99552 15.99552 0 0 0 -16 16z" fill="#e9afc0" data-original="#e9afc0" style="" class=""/><circle xmlns="http://www.w3.org/2000/svg" cx="48" cy="416" r="8" fill="#000000" data-original="#000000" style="" class=""/><circle xmlns="http://www.w3.org/2000/svg" cx="72" cy="416" r="8" fill="#000000" data-original="#000000" style="" class=""/><circle xmlns="http://www.w3.org/2000/svg" cx="96" cy="416" r="8" fill="#000000" data-original="#000000" style="" class=""/><path xmlns="http://www.w3.org/2000/svg" d="m192 392h48v16h-48z" fill="#000000" data-original="#000000" style="" class=""/><path xmlns="http://www.w3.org/2000/svg" d="m192 424h48v16h-48z" fill="#000000" data-original="#000000" style="" class=""/><path xmlns="http://www.w3.org/2000/svg" d="m248 257.01263v-25.01263a8.00008 8.00008 0 0 0 -8-8h-192a16.01833 16.01833 0 0 1 -16-16v-32a16.01833 16.01833 0 0 1 16-16h184v-16h-184a32.03635 32.03635 0 0 0 -32 32v32a32.05744 32.05744 0 0 0 24 30.98737v18.02526a32.05744 32.05744 0 0 0 -24 30.98737v32a32.05744 32.05744 0 0 0 24 30.98737v18.02526a32.05744 32.05744 0 0 0 -24 30.98737v32a32.05744 32.05744 0 0 0 24 30.98737v25.01263a8.00008 8.00008 0 0 0 8 8h32a8.00008 8.00008 0 0 0 8-8v-24h112v24a8.00008 8.00008 0 0 0 8 8h32a8.00008 8.00008 0 0 0 8-8v-25.01263a32.05744 32.05744 0 0 0 24-30.98737v-32a32.05744 32.05744 0 0 0 -24-30.98737v-18.02526a32.05744 32.05744 0 0 0 24-30.98737v-32a32.05744 32.05744 0 0 0 -24-30.98737zm-16-1.01263h-16v-16h16zm-176 0v-16h16v16zm32-16h112v16h-112zm128 128v-16h16v16zm-16 0h-112v-16h112zm-128 0h-16v-16h16zm0 112h-16v-16h16zm144 0v-16h16v16zm40-80v32a16.01833 16.01833 0 0 1 -16 16h-192a16.01833 16.01833 0 0 1 -16-16v-32a16.01833 16.01833 0 0 1 16-16h192a16.01833 16.01833 0 0 1 16 16zm0-80a16.01833 16.01833 0 0 1 -16 16h-192a16.01833 16.01833 0 0 1 -16-16v-32a16.01833 16.01833 0 0 1 16-16h192a16.01833 16.01833 0 0 1 16 16z" fill="#000000" data-original="#000000" style="" class=""/><circle xmlns="http://www.w3.org/2000/svg" cx="48" cy="304" r="8" fill="#000000" data-original="#000000" style="" class=""/><circle xmlns="http://www.w3.org/2000/svg" cx="72" cy="304" r="8" fill="#000000" data-original="#000000" style="" class=""/><circle xmlns="http://www.w3.org/2000/svg" cx="96" cy="304" r="8" fill="#000000" data-original="#000000" style="" class=""/><path xmlns="http://www.w3.org/2000/svg" d="m192 280h48v16h-48z" fill="#000000" data-original="#000000" style="" class=""/><path xmlns="http://www.w3.org/2000/svg" d="m192 312h48v16h-48z" fill="#000000" data-original="#000000" style="" class=""/><circle xmlns="http://www.w3.org/2000/svg" cx="48" cy="192" r="8" fill="#000000" data-original="#000000" style="" class=""/><circle xmlns="http://www.w3.org/2000/svg" cx="72" cy="192" r="8" fill="#000000" data-original="#000000" style="" class=""/><circle xmlns="http://www.w3.org/2000/svg" cx="96" cy="192" r="8" fill="#000000" data-original="#000000" style="" class=""/><path xmlns="http://www.w3.org/2000/svg" d="m472 104a32.05475 32.05475 0 0 0 -24.16626-31.02643 28.03746 28.03746 0 0 0 -27.83374-24.97357h-20a24.02718 24.02718 0 0 0 -24 24v112a24.02718 24.02718 0 0 0 24 24h24a31.99934 31.99934 0 0 0 30.60156-41.35577 31.89216 31.89216 0 0 0 5.5398-37.81482 32.14944 32.14944 0 0 0 11.85864-24.82941zm-48 88h-24a8.00917 8.00917 0 0 1 -8-8v-112a8.00917 8.00917 0 0 1 8-8h20a12.01343 12.01343 0 0 1 12 12 11.87672 11.87672 0 0 1 -.18433 1.97107 23.89338 23.89338 0 0 0 -15.81567-5.97107v16a8 8 0 0 1 0 16v16a24.02718 24.02718 0 0 0 24-24c0-.13409-.00781-.2663-.01025-.39984a28.09332 28.09332 0 0 0 4.915-6.82379 15.98428 15.98428 0 0 1 4.33935 28.26941 31.848 31.848 0 0 0 -6.57617-3.222l-5.332 15.085a16.016 16.016 0 0 1 8.27319 23.51367 31.94454 31.94454 0 0 0 -14.73-7.66967 24.04129 24.04129 0 0 0 -22.87912-16.75278v16a8 8 0 0 1 0 16v16a24.03566 24.03566 0 0 0 22.15039-14.76685 15.99771 15.99771 0 0 1 -6.15039 30.76685z" fill="#000000" data-original="#000000" style="" class=""/><path xmlns="http://www.w3.org/2000/svg" d="m344 48h-20a28.03746 28.03746 0 0 0 -27.83374 24.97357 31.97083 31.97083 0 0 0 -12.30762 55.85584 31.89216 31.89216 0 0 0 5.5398 37.81482 31.99934 31.99934 0 0 0 30.60156 41.35577h24a24.02718 24.02718 0 0 0 24-24v-112a24.02718 24.02718 0 0 0 -24-24zm8 136a8.00917 8.00917 0 0 1 -8 8h-24a15.99771 15.99771 0 0 1 -6.15039-30.76685 24.03566 24.03566 0 0 0 22.15039 14.76685v-16a8 8 0 0 1 0-16v-16a24.04129 24.04129 0 0 0 -22.87915 16.75269 31.94454 31.94454 0 0 0 -14.73 7.66967 16.016 16.016 0 0 1 8.27319-23.51367l-5.332-15.085a31.848 31.848 0 0 0 -6.57617 3.222 15.98428 15.98428 0 0 1 4.33935-28.26941 28.09332 28.09332 0 0 0 4.915 6.82379c-.00241.13363-.01022.26584-.01022.39993a24.02718 24.02718 0 0 0 24 24v-16a8 8 0 0 1 0-16v-16a23.89412 23.89412 0 0 0 -15.81567 5.971 11.88341 11.88341 0 0 1 11.81567-13.971h20a8.00917 8.00917 0 0 1 8 8z" fill="#000000" data-original="#000000" style="" class=""/><path xmlns="http://www.w3.org/2000/svg" d="m464 16h-184a32.03635 32.03635 0 0 0 -32 32v108.68652l-45.65723 45.65674a8.00038 8.00038 0 0 0 5.65723 13.65674h41.0127a32.05589 32.05589 0 0 0 30.9873 24h184a32.03635 32.03635 0 0 0 32-32v-160a32.03635 32.03635 0 0 0 -32-32zm16 192a16.01833 16.01833 0 0 1 -16 16h-184a16.01833 16.01833 0 0 1 -16-16 8.00008 8.00008 0 0 0 -8-8h-28.68652l34.34375-34.34326a8.00035 8.00035 0 0 0 2.34277-5.65674v-112a16.01833 16.01833 0 0 1 16-16h184a16.01833 16.01833 0 0 1 16 16z" fill="#000000" data-original="#000000" style="" class=""/></g></svg>
